<svg width="100" height="100" viewBox="0 0 100 100" fill="none" xmlns="http://www.w3.org/2000/svg">
<path d="M9.375 12.5C4.19922 12.5 0 16.6992 0 21.875C0 24.8242 1.38672 27.5977 3.75 29.375L46.25 61.25C48.4766 62.9102 51.5234 62.9102 53.75 61.25L96.25 29.375C98.6133 27.5977 100 24.8242 100 21.875C100 16.6992 95.8008 12.5 90.625 12.5H9.375ZM0 34.375V75C0 81.8945 5.60547 87.5 12.5 87.5H87.5C94.3945 87.5 100 81.8945 100 75V34.375L57.5 66.25C53.0469 69.5898 46.9531 69.5898 42.5 66.25L0 34.375Z" fill="white"/>
</svg>
