<svg width="100" height="100" viewBox="0 0 100 100" fill="none" xmlns="http://www.w3.org/2000/svg">
<g clip-path="url(#clip0_50_50)">
<path d="M47.5391 0.507813L3.78906 19.2578C1.05468 20.4297 -0.468753 23.3594 0.136716 26.25C0.742185 29.1406 3.28125 31.25 6.25 31.25V32.8125C6.25 35.4102 8.33984 37.5 10.9375 37.5H89.0625C91.6602 37.5 93.75 35.4102 93.75 32.8125V31.25C96.7188 31.25 99.2773 29.1602 99.8633 26.25C100.449 23.3398 98.9258 20.4102 96.2109 19.2578L52.4609 0.507813C50.8984 -0.15625 49.1016 -0.15625 47.5391 0.507813ZM25 43.75H12.5V82.0898C12.3828 82.1484 12.2656 82.2266 12.1484 82.3047L2.77343 88.5547C0.488279 90.0781 -0.546878 92.9297 0.253904 95.5664C1.05468 98.2031 3.49609 100 6.25 100H93.75C96.5039 100 98.9258 98.2031 99.7266 95.5664C100.527 92.9297 99.5117 90.0781 97.207 88.5547L87.832 82.3047C87.7148 82.2266 87.5977 82.168 87.4805 82.0898V43.75H75V81.25H67.1875V43.75H54.6875V81.25H45.3125V43.75H32.8125V81.25H25V43.75ZM50 12.5C51.6576 12.5 53.2473 13.1585 54.4194 14.3306C55.5915 15.5027 56.25 17.0924 56.25 18.75C56.25 20.4076 55.5915 21.9973 54.4194 23.1694C53.2473 24.3415 51.6576 25 50 25C48.3424 25 46.7527 24.3415 45.5806 23.1694C44.4085 21.9973 43.75 20.4076 43.75 18.75C43.75 17.0924 44.4085 15.5027 45.5806 14.3306C46.7527 13.1585 48.3424 12.5 50 12.5Z" fill="white"/>
</g>
<defs>
<clipPath id="clip0_50_50">
<rect width="100" height="100" fill="white"/>
</clipPath>
</defs>
</svg>
