<svg width="100" height="111" viewBox="0 0 100 111" fill="none" xmlns="http://www.w3.org/2000/svg">
<path d="M100 17.2127C100 21.0856 97.207 24.6572 92.5 27.5403C86.8164 31.0044 78.3398 33.4572 68.6133 34.1888C67.8906 33.8015 67.168 33.4357 66.4062 33.113C58.7109 29.5628 48.4766 27.5403 37.5 27.5403C35.8789 27.5403 34.2969 27.5834 32.7148 27.6694L32.5 27.5403C27.793 24.6572 25 21.0856 25 17.2127C25 7.70269 41.7969 0 62.5 0C83.2031 0 100 7.70269 100 17.2127ZM31.3867 34.6621C33.3789 34.5115 35.4297 34.4254 37.5 34.4254C49.6484 34.4254 60.4297 37.0719 67.2852 41.1814C72.1289 44.0861 75 47.7007 75 51.6382C75 52.4988 74.8633 53.3379 74.5898 54.1555C73.6914 56.9956 71.2695 59.599 67.7539 61.7937C67.7344 61.8152 67.6953 61.8152 67.6758 61.8367C67.6172 61.8797 67.5586 61.9012 67.5 61.9443C60.6641 66.1184 49.7656 68.8294 37.5 68.8294C25.8594 68.8294 15.4492 66.3981 8.55469 62.5682C8.18359 62.3746 7.83203 62.1594 7.48047 61.9443C2.79297 59.0827 0 55.511 0 51.6382C0 44.1506 10.4297 37.7604 25 35.4152C27.0508 35.0924 29.1797 34.8342 31.3867 34.6621ZM81.25 51.6382C81.25 46.9262 79.1797 43.0533 76.543 40.1487C82.0703 39.202 87.1289 37.6959 91.4258 35.7379C94.6094 34.2748 97.5781 32.4675 100 30.2514V37.868C100 42.0205 96.7773 45.8504 91.4453 48.8196C88.5938 50.4117 85.1172 51.7673 81.2109 52.8C81.2305 52.4127 81.25 52.047 81.25 51.6597V51.6382ZM75 72.2934C75 76.1663 72.207 79.7379 67.5 82.621C67.1484 82.8362 66.7969 83.0299 66.4258 83.245C59.5508 87.0748 49.1406 89.5061 37.5 89.5061C25.2344 89.5061 14.3359 86.7951 7.5 82.621C2.79297 79.7379 0 76.1663 0 72.2934V64.6768C2.44141 66.8929 5.39063 68.7003 8.57422 70.1633C16.2891 73.7135 26.5234 75.736 37.5 75.736C48.4766 75.736 58.7109 73.7135 66.4258 70.1633C67.9492 69.4748 69.4141 68.6788 70.8008 67.8181C71.9922 67.0866 73.1055 66.269 74.1602 65.4083C74.4531 65.1717 74.7266 64.9135 75 64.6768V65.4083V66.6347V72.2934ZM81.25 72.2934V65.4083V59.8357C84.9609 58.932 88.3789 57.7917 91.4258 56.3932C94.6094 54.9301 97.5781 53.1228 100 50.9066V58.5232C100 60.7824 99.0234 63.0416 97.0898 65.1717C93.9063 68.6787 88.3008 71.5619 81.2109 73.4338C81.2305 73.068 81.25 72.6807 81.25 72.2934ZM37.5 96.3912C48.4766 96.3912 58.7109 94.3687 66.4258 90.8186C69.6094 89.3555 72.5781 87.5482 75 85.3321V92.9487C75 102.459 58.2031 110.161 37.5 110.161C16.7969 110.161 0 102.459 0 92.9487V85.3321C2.44141 87.5482 5.39063 89.3555 8.57422 90.8186C16.2891 94.3687 26.5234 96.3912 37.5 96.3912Z" fill="white"/>
</svg>
