<svg width="100" height="93" viewBox="0 0 100 93" fill="none" xmlns="http://www.w3.org/2000/svg">
<path d="M97.7467 51.5984C100.751 48.5939 100.751 43.7147 97.7467 40.7103L59.2897 2.25333C56.2853 -0.751112 51.4061 -0.751112 48.4016 2.25333C45.3972 5.25778 45.3972 10.137 48.4016 13.1414L81.4265 46.1663L48.4257 79.1912C45.4212 82.1956 45.4212 87.0749 48.4257 90.0793C51.4301 93.0838 56.3093 93.0838 59.3138 90.0793L97.7707 51.6224L97.7467 51.5984ZM13.1414 90.0553L51.5984 51.5984C54.6028 48.5939 54.6028 43.7147 51.5984 40.7103L13.1414 2.25333C10.137 -0.751112 5.25778 -0.751112 2.25333 2.25333C-0.751112 5.25778 -0.751112 10.137 2.25333 13.1414L35.2782 46.1663L2.27737 79.1912C-0.727077 82.1956 -0.727077 87.0749 2.27737 90.0793C5.28182 93.0838 10.161 93.0838 13.1655 90.0793L13.1414 90.0553Z" fill="white"/>
</svg>
