<svg width="100" height="111" viewBox="0 0 100 111" fill="none" xmlns="http://www.w3.org/2000/svg">
<path d="M59.5312 17.9229L29.0781 0.943189C26.4688 -0.496949 23.5781 -0.287897 21.0938 1.57035L13.9219 6.88957C12.1875 8.19034 12.0625 11.7907 13.6875 13.347L36.6406 35.2974L21.25 46.9812L12.1562 40.9651C10.7969 40.0592 9.21875 40.1057 7.89062 41.1045L2.85938 44.8442C1.40625 45.9359 1.01562 48.7465 2.07812 50.5815L13.5 70.395C14.4531 72.0442 15.8438 72.9965 17.2969 72.9965H38.8125C39.5938 72.9965 40.3594 72.7178 41.0469 72.2068L83.6875 40.5238C90.9531 35.1116 96.5781 25.8204 99.4375 14.5084C100.922 8.6549 98 2.38333 93.7812 2.38333H84.8125C81.6562 2.38333 78.5312 3.49827 75.7188 5.63525L59.5312 17.9229ZM0 102.728C0 106.84 2.23438 110.161 5 110.161H95C97.7656 110.161 100 106.84 100 102.728C100 98.6171 97.7656 95.2955 95 95.2955H5C2.23438 95.2955 0 98.6171 0 102.728Z" fill="white"/>
</svg>
