<?xml version="1.0" standalone="no"?>
<!DOCTYPE svg PUBLIC "-//W3C//DTD SVG 20010904//EN"
 "http://www.w3.org/TR/2001/REC-SVG-20010904/DTD/svg10.dtd">
<svg version="1.0" xmlns="http://www.w3.org/2000/svg"
 width="640.000000pt" height="640.000000pt" viewBox="0 0 640.000000 640.000000"
 preserveAspectRatio="xMidYMid meet">

<g transform="translate(0.000000,640.000000) scale(0.100000,-0.100000)"
fill="#000000" stroke="none">
<path d="M4885 4068 c-16 -6 -247 -107 -512 -224 -324 -144 -488 -212 -500
-207 -10 4 -53 33 -95 65 -59 45 -85 58 -111 58 -58 0 -62 -17 -22 -104 19
-42 35 -79 35 -82 0 -2 -594 -5 -1321 -6 l-1320 -3 37 -43 36 -43 -42 -162
c-23 -89 -57 -218 -75 -287 -19 -69 -45 -171 -59 -226 -14 -56 -29 -109 -32
-118 -5 -14 6 -16 90 -16 114 0 101 -15 146 170 55 223 44 200 98 200 47 0 48
1 115 80 l68 80 -90 0 c-59 0 -91 4 -91 11 0 6 7 34 14 62 8 29 20 71 26 95
l11 42 1282 0 c846 0 1304 4 1347 11 82 13 211 56 363 121 65 27 120 48 122
46 2 -2 -16 -113 -41 -248 -24 -134 -40 -248 -36 -252 12 -12 90 31 111 61 11
14 49 92 86 171 36 80 94 204 127 277 l61 132 181 91 c187 93 276 150 276 175
0 18 -55 59 -99 74 -42 14 -145 13 -186 -1z"/>
<path d="M3968 4003 c-21 -8 -38 -20 -38 -27 0 -10 101 -78 200 -134 l35 -20
99 44 c55 24 103 47 108 52 11 11 -288 102 -333 101 -19 0 -51 -7 -71 -16z"/>
<path d="M1500 3314 c0 -3 9 -17 20 -31 11 -14 20 -32 20 -39 0 -8 -31 -133
-70 -278 -38 -145 -70 -268 -70 -275 0 -7 20 -11 55 -11 49 0 55 2 60 23 44
174 84 309 88 297 6 -17 53 -234 62 -291 5 -28 24 -54 81 -110 41 -40 74 -70
74 -66 0 3 -20 99 -45 213 -25 113 -45 207 -45 209 0 2 19 6 42 10 22 4 51 17
63 29 24 24 90 255 80 285 -11 34 -50 41 -235 41 -99 0 -180 -3 -180 -6z m290
-91 c-1 -15 -38 -151 -44 -162 -8 -12 -136 -16 -136 -3 1 14 38 150 44 161 8
12 136 16 136 4z"/>
<path d="M1940 3314 c0 -3 14 -23 31 -44 l32 -39 -67 -258 c-37 -142 -70 -266
-72 -275 -5 -17 8 -18 175 -18 l180 0 -16 45 -15 45 -94 0 c-109 0 -105 -7
-70 110 20 70 24 75 51 78 28 3 105 65 105 84 0 4 -25 8 -55 8 -30 0 -55 1
-55 3 0 1 11 40 24 87 l23 85 70 3 c68 3 71 4 102 42 17 21 31 41 31 44 0 3
-85 6 -190 6 -104 0 -190 -3 -190 -6z"/>
<path d="M2350 3309 c0 -6 11 -24 25 -41 14 -16 25 -36 25 -44 0 -15 -125
-500 -137 -530 -4 -12 22 -14 177 -14 l181 0 -7 23 c-22 71 -15 67 -119 67
-52 0 -95 3 -95 8 1 4 11 45 24 92 23 84 23 85 58 90 23 3 45 16 66 41 18 20
32 40 32 43 0 4 -23 5 -51 3 -27 -2 -52 0 -54 3 -2 4 3 29 11 56 8 27 19 66
25 87 l10 37 67 0 c65 0 69 1 105 38 20 21 37 41 37 45 0 4 -85 7 -190 7 -132
0 -190 -3 -190 -11z"/>
<path d="M2770 3314 c0 -3 11 -20 25 -39 l26 -33 -67 -253 c-37 -140 -69 -266
-72 -281 l-4 -28 149 0 149 0 52 38 c28 20 52 40 52 45 0 4 -61 7 -136 7 -124
0 -135 1 -130 18 3 9 28 103 56 207 28 105 57 212 65 239 26 87 27 86 -75 86
-49 0 -90 -3 -90 -6z"/>
<path d="M3200 3314 c0 -3 11 -20 26 -36 14 -17 23 -36 21 -42 -3 -6 -23 -85
-47 -176 -23 -91 -55 -212 -71 -269 -16 -58 -29 -106 -29 -108 0 -2 26 -3 58
-3 l58 0 82 308 c45 170 82 314 82 320 0 8 -29 12 -90 12 -49 0 -90 -3 -90 -6z"/>
<path d="M3430 3314 c0 -3 11 -20 26 -36 14 -17 23 -37 20 -44 -5 -12 -167
-622 -180 -677 l-7 -29 28 20 c15 11 47 37 69 58 40 37 44 47 84 194 61 226
63 231 70 223 6 -7 43 -159 71 -290 l11 -53 42 0 42 0 82 308 c45 169 82 313
82 320 0 20 -97 16 -108 -5 -5 -10 -26 -85 -47 -168 -21 -82 -42 -154 -46
-159 -4 -4 -15 27 -24 70 -10 44 -27 122 -39 174 l-22 95 -77 3 c-42 2 -77 0
-77 -4z"/>
<path d="M3910 3311 c0 -4 13 -25 29 -45 28 -35 28 -37 16 -83 -8 -27 -39
-143 -69 -260 -31 -117 -59 -219 -62 -228 -5 -13 16 -15 176 -15 l181 0 -7 23
c-22 71 -15 67 -120 67 l-96 0 6 28 c4 15 16 57 27 95 19 65 21 67 53 67 26 0
39 8 64 39 18 22 32 42 32 45 0 4 -20 5 -45 4 -25 0 -48 2 -51 5 -6 6 0 38 27
140 l10 37 67 0 c65 0 69 1 105 38 20 21 37 41 37 45 0 4 -85 7 -190 7 -104 0
-190 -4 -190 -9z"/>
</g>
</svg>
