<svg width="25" height="25" viewBox="0 0 25 25" fill="none" xmlns="http://www.w3.org/2000/svg">
<path d="M12.5 1C6.15464 1 1 6.15465 1 12.5C1 18.8454 6.15464 24 12.5 24C18.8454 24 24 18.8454 24 12.5C24 6.15465 18.8454 1 12.5 1ZM12.5 2C18.3049 2 23 6.69509 23 12.5C23 18.3049 18.3049 23 12.5 23C6.69508 23 2 18.3049 2 12.5C2 6.69509 6.69508 2 12.5 2ZM17.0439 7.01758C16.7019 7.01758 16.3177 7.09679 15.8682 7.25879C15.1702 7.51029 6.96037 10.9961 6.02637 11.3926C5.49237 11.6196 4.49805 12.0418 4.49805 13.0488C4.49805 13.7163 4.88918 14.1937 5.65918 14.4688C6.07318 14.6162 7.05645 14.9143 7.62695 15.0713C7.86895 15.1378 8.12613 15.1719 8.39062 15.1719C8.90812 15.1719 9.42891 15.0429 9.83691 14.8154C9.83341 14.8994 9.8357 14.9843 9.8457 15.0693C9.9072 15.5943 10.2309 16.0881 10.7109 16.3906C11.0249 16.5886 13.5897 18.3071 13.9727 18.5801C14.5107 18.9646 15.1054 19.168 15.6914 19.168C16.8114 19.168 17.1872 18.0116 17.3682 17.4561C17.6307 16.6496 18.6136 10.0911 18.7246 8.93457C18.8001 8.14207 18.4698 7.48948 17.8408 7.18848C17.6053 7.07498 17.3364 7.01758 17.0439 7.01758ZM17.0439 8.01758C17.1814 8.01758 17.3042 8.04032 17.4082 8.09082C17.6447 8.20432 17.765 8.45734 17.7285 8.83984C17.6075 10.1013 16.627 16.5045 16.418 17.1465C16.239 17.6955 16.0504 18.168 15.6914 18.168C15.3324 18.168 14.9402 18.0421 14.5537 17.7656C14.1672 17.4896 11.6006 15.7684 11.2441 15.5439C10.9316 15.3469 10.6009 14.8559 11.0664 14.3809C11.4499 13.9899 14.3589 11.1665 14.6074 10.918C14.7924 10.7325 14.7059 10.5088 14.5244 10.5088C14.4619 10.5088 14.3871 10.5351 14.3096 10.5986C14.0056 10.8471 9.76739 13.6831 9.40039 13.9111C9.15739 14.0621 8.78113 14.1709 8.39062 14.1709C8.22412 14.1709 8.05555 14.1509 7.89355 14.1064C7.32955 13.9509 6.37509 13.6614 5.99609 13.5264C5.63159 13.3964 5.49902 13.2718 5.49902 13.0488C5.49902 12.7318 5.94647 12.513 6.41797 12.3125C6.91597 12.101 15.533 8.44172 16.207 8.19922C16.519 8.08622 16.8044 8.01758 17.0439 8.01758Z" fill="#0C8AFF"/>
</svg>
