<svg width="25" height="25" viewBox="0 0 25 25" fill="none" xmlns="http://www.w3.org/2000/svg">
<g clip-path="url(#clip0_2_731)">
<path d="M7.47364 4.46094C7.46452 4.46101 7.4554 4.46134 7.4463 4.46191L7.05665 4.47852C7.05045 4.47905 7.04427 4.4797 7.03809 4.48047C5.87378 4.57546 4.80332 5.06607 3.97462 5.7168L3.97266 5.71777C3.15982 6.36205 2.53783 7.12609 2.04786 7.91016C1.55392 8.69398 1.17961 9.50973 0.879891 10.332C0.879558 10.3337 0.879232 10.3353 0.878915 10.3369C0.294931 11.9863 -0.0196962 13.6993 -0.025382 15.4707C-0.0253935 15.4727 -0.0253935 15.4746 -0.025382 15.4766C-0.0175578 16.4014 0.0997506 17.3911 0.487313 18.3828C0.870808 19.3753 1.60093 20.4327 2.78614 21.0371H2.78712L2.78809 21.0381C3.37721 21.3405 4.03325 21.4922 4.66798 21.4961C5.38671 21.5117 6.03985 21.3088 6.55567 21.0596C6.5573 21.0589 6.55893 21.0583 6.56056 21.0576C7.57145 20.5568 8.27128 19.8841 8.86915 19.251C8.87079 19.2494 8.87242 19.2477 8.87403 19.2461C10.0667 17.9501 10.9407 16.5542 11.7373 15.1621V15.1611C12.0131 14.6815 12.2516 14.1893 12.5 13.7002C12.7486 14.1895 12.9867 14.6823 13.2627 15.1621C14.0593 16.5536 14.9333 17.95 16.126 19.2461C16.1276 19.2477 16.1292 19.2494 16.1309 19.251C16.7291 19.8845 17.4284 20.5572 18.4395 21.0576C18.4411 21.0583 18.4427 21.0589 18.4443 21.0596C18.9604 21.309 19.6138 21.5111 20.332 21.4961C20.9668 21.4922 21.6228 21.3405 22.2119 21.0381L22.2139 21.0371C23.3981 20.4327 24.128 19.3767 24.5117 18.3848C24.8999 17.3924 25.0176 16.402 25.0254 15.4766C25.0254 15.4746 25.0254 15.4727 25.0254 15.4707C25.0197 13.6997 24.7045 11.9862 24.1211 10.3369C24.1208 10.3356 24.1205 10.3343 24.1201 10.333C23.821 9.51078 23.4469 8.69431 22.9531 7.91113C22.4632 7.12707 21.8402 6.36303 21.0274 5.71875L21.0254 5.7168C20.1967 5.06606 19.1262 4.57546 17.9619 4.48047C17.9561 4.48004 17.9502 4.47971 17.9443 4.47949L17.5547 4.46191C17.5453 4.46165 17.5358 4.46165 17.5264 4.46191C17.3935 4.46338 17.2288 4.46417 17.0518 4.48633C16.7253 4.51792 16.424 4.58938 16.1484 4.67285C16.1471 4.67317 16.1458 4.6735 16.1445 4.67383C15.5745 4.85148 15.0844 5.11243 14.6592 5.3916L14.6572 5.39355C13.8136 5.9556 13.1631 6.61375 12.5957 7.2627C12.5602 7.3032 12.5337 7.33972 12.5 7.37988C12.4666 7.3399 12.4405 7.30304 12.4053 7.2627L12.4043 7.26172C11.8367 6.61365 11.1873 5.95609 10.3438 5.39355C10.3428 5.3929 10.3418 5.39225 10.3408 5.3916C9.91536 5.11257 9.42496 4.85148 8.85548 4.67383C8.85418 4.6735 8.85287 4.67317 8.85157 4.67285C8.57566 4.58944 8.2743 4.51694 7.94825 4.48535C7.77165 4.46333 7.60622 4.4624 7.47364 4.46094ZM7.47657 5.46191C7.60774 5.46346 7.73785 5.46556 7.83009 5.47754C7.83593 5.47829 7.84179 5.47894 7.84766 5.47949C8.08717 5.50222 8.32316 5.5582 8.56056 5.62988H8.56251C9.01985 5.77321 9.42291 5.9855 9.792 6.22754C10.532 6.72157 11.1137 7.30585 11.6524 7.9209C11.8028 8.09354 11.9461 8.28154 12.1025 8.47852C12.1038 8.48015 12.1051 8.48178 12.1065 8.4834L12.1084 8.48535C12.1153 8.49372 12.1225 8.50186 12.1299 8.50977C12.8361 9.28754 13.3163 10.1234 13.6963 10.7568C13.716 10.7904 13.7396 10.8215 13.7666 10.8496C14.319 11.863 14.946 13.0006 15.5264 13.9395C15.527 13.9408 15.5277 13.9421 15.5283 13.9434C16.3312 15.2167 17.2042 16.4714 18.1982 17.5117L18.2002 17.5127C18.7368 18.0691 19.4846 18.5029 20.4424 18.5029C20.7799 18.5029 21.122 18.4461 21.4346 18.2812C21.7465 18.1168 22.0176 17.8292 22.1572 17.458C22.3884 16.856 22.4763 16.1708 22.4736 15.4756V15.4727C22.4601 14.0397 22.1793 12.5688 21.6856 11.2158L21.6846 11.2139C21.1977 9.86314 20.4642 8.56542 19.4375 7.75488C19.4362 7.7539 19.4349 7.75292 19.4336 7.75195C18.9185 7.35417 18.3477 7.1069 17.749 7.05176C17.7412 7.05125 17.7334 7.05092 17.7256 7.05078L17.5371 7.04199C17.5238 7.04146 17.5104 7.04146 17.4971 7.04199C17.4688 7.04299 17.402 7.04329 17.3174 7.05273C17.1608 7.0638 17.029 7.09648 16.9141 7.12793C16.9115 7.12888 16.9089 7.12986 16.9063 7.13086C16.6204 7.214 16.3392 7.35318 16.0606 7.53125H16.0596C15.5014 7.88901 14.9809 8.38556 14.4971 8.92871C14.312 9.13574 14.1621 9.31713 14.0166 9.47559C13.7628 9.06586 13.5021 8.66546 13.1231 8.19922C13.1971 8.10663 13.2726 8.00751 13.3477 7.92188L13.3486 7.9209C13.8873 7.30484 14.4695 6.72052 15.2109 6.22656C15.5799 5.98457 15.9828 5.77194 16.4414 5.62891H16.4424C16.6784 5.5576 16.914 5.50314 17.1533 5.48047C17.1592 5.47992 17.1651 5.47927 17.1709 5.47852C17.2659 5.46617 17.3989 5.46343 17.5342 5.46191H17.5371L17.8809 5.47754H17.8818C18.8129 5.55373 19.7182 5.96307 20.4072 6.50391H20.4082C21.1133 7.06326 21.6629 7.73323 22.1055 8.44141L22.1065 8.44238C22.5551 9.15362 22.8991 9.90369 23.1797 10.6748C23.7265 12.2222 24.0194 13.8166 24.0254 15.4678V15.4707C24.0254 15.4717 24.0254 15.4726 24.0254 15.4736C24.0178 16.3193 23.9111 17.1768 23.5811 18.0205L23.5801 18.0225C23.2648 18.8384 22.6687 19.6831 21.7578 20.1475H21.7568C21.3164 20.3739 20.8009 20.4945 20.3242 20.4971C20.3213 20.497 20.3184 20.497 20.3154 20.4971C19.8014 20.5087 19.2872 20.3559 18.8799 20.1592H18.8789C18.0256 19.736 17.4337 19.174 16.8623 18.5693L16.8613 18.5684C15.7467 17.3569 14.9139 16.032 14.1309 14.6641L14.1299 14.6631C13.709 13.9313 13.3222 13.1743 12.9541 12.4111C12.953 12.4088 12.9514 12.4067 12.9502 12.4043C12.9439 12.391 12.9371 12.3779 12.9297 12.3652C12.9288 12.3638 12.9276 12.3618 12.9268 12.3604C12.9252 12.3577 12.9235 12.3551 12.9219 12.3525C12.5659 11.755 12.0919 10.9439 11.625 10.3467C11.6129 10.3225 11.5989 10.2993 11.583 10.2773C11.5792 10.2723 11.5751 10.2678 11.5713 10.2627C11.2253 9.79976 10.8781 9.34843 10.5029 8.92871C10.0191 8.38556 9.49864 7.88901 8.94044 7.53125H8.93946C8.66086 7.35318 8.37964 7.214 8.09376 7.13086C8.09213 7.1302 8.09051 7.12955 8.08888 7.12891C7.97116 7.09603 7.83679 7.06256 7.68067 7.05176C7.59768 7.04269 7.53091 7.04299 7.50294 7.04199C7.4896 7.04146 7.47624 7.04146 7.4629 7.04199L7.27442 7.05078C7.2666 7.05092 7.25879 7.05125 7.25099 7.05176C6.65231 7.1069 6.08127 7.3539 5.56641 7.75195C5.56511 7.75292 5.56381 7.7539 5.56251 7.75488C4.53502 8.56542 3.80133 9.86439 3.31446 11.2158C2.82073 12.5688 2.53996 14.0398 2.52638 15.4727V15.4756C2.52424 16.1709 2.6122 16.857 2.84376 17.459V17.4609C3.07404 18.0729 3.44213 18.547 3.92091 18.7979H3.92188L3.92286 18.7988C4.15212 18.9192 4.41973 18.9874 4.70118 18.9932C4.95501 19.0078 5.21503 18.9482 5.49024 18.8271L5.4922 18.8252C6.061 18.5713 6.60662 18.1086 7.10743 17.5898L7.10938 17.5879C8.10274 16.5472 8.97594 15.2938 9.77931 14.0205C9.78029 14.0192 9.78127 14.0179 9.78224 14.0166C10.2814 13.209 10.7439 12.3738 11.208 11.5361C11.4549 11.9101 11.6967 12.2674 11.9229 12.6475C11.5896 13.3293 11.2469 14.008 10.8701 14.6631L10.8691 14.6641C10.0861 16.0324 9.25332 17.3569 8.13868 18.5684L8.1377 18.5693C7.5665 19.1738 6.97279 19.7363 6.11817 20.1602C5.7109 20.3566 5.1983 20.5091 4.68556 20.4971C4.6823 20.497 4.67905 20.497 4.67579 20.4971C4.19919 20.4944 3.68362 20.3739 3.24317 20.1475L3.2422 20.1465C2.3316 19.6827 1.73522 18.8384 1.41993 18.0225L1.41895 18.0205C1.08892 17.1768 0.982223 16.3193 0.974618 15.4736V15.4678C0.980605 13.815 1.27242 12.22 1.82032 10.6719L1.8213 10.6699C2.1021 9.90035 2.44679 9.15271 2.89454 8.44238L2.89552 8.44043C3.33854 7.73149 3.8876 7.06167 4.59376 6.50195C5.2827 5.96126 6.18826 5.55274 7.11915 5.47656H7.12013L7.47657 5.46191ZM7.4922 8.04199C7.53015 8.04299 7.56544 8.04395 7.56544 8.04395C7.5797 8.04586 7.59403 8.04717 7.60841 8.04785C7.64251 8.04975 7.71854 8.06433 7.81446 8.09082C7.97558 8.13768 8.184 8.23509 8.40138 8.37402C8.8399 8.65529 9.31102 9.09328 9.75684 9.59375V9.59473C10.0343 9.90511 10.3061 10.2623 10.5801 10.623C10.046 11.6008 9.50676 12.5588 8.9336 13.4863C8.14697 14.7331 7.30437 15.9361 6.38673 16.8975C5.94068 17.3591 5.44046 17.7529 5.08692 17.9111C4.90058 17.9931 4.80815 18.0016 4.75587 17.998C4.74644 17.9975 4.737 17.9971 4.72755 17.9971C4.58663 17.9954 4.49273 17.9689 4.38673 17.9131L4.38575 17.9121C4.19677 17.8134 3.94188 17.5422 3.77833 17.1055C3.77801 17.1042 3.77768 17.1029 3.77735 17.1016C3.60871 16.6638 3.52482 16.0872 3.52638 15.4824V15.4805V15.4795C3.53914 14.172 3.79941 12.8042 4.25489 11.5566L4.25587 11.5547C4.70063 10.3201 5.38999 9.16676 6.18067 8.54199C6.57242 8.2396 6.95287 8.08497 7.34083 8.04883L7.4922 8.04199ZM17.5078 8.04199L17.6592 8.04883C18.0464 8.08491 18.4266 8.23939 18.8184 8.54102C19.6097 9.16624 20.2992 10.3197 20.7441 11.5547L20.7451 11.5566C21.2009 12.8051 21.4612 14.174 21.4736 15.4824C21.4756 16.087 21.3924 16.663 21.2236 17.1016C21.223 17.1029 21.2223 17.1042 21.2217 17.1055C21.1641 17.2593 21.0905 17.3318 20.9678 17.3965C20.8451 17.4612 20.6628 17.5029 20.4424 17.5029C19.768 17.5029 19.3318 17.2449 18.9219 16.8203C18.0049 15.8607 17.1623 14.6592 16.377 13.4141L16.374 13.4102C15.8022 12.4849 15.1651 11.3302 14.6104 10.3115C14.8048 10.0802 14.9584 9.91326 15.2432 9.59473V9.59375C15.689 9.09328 16.1601 8.65529 16.5986 8.37402L16.5996 8.37305C16.8161 8.23484 17.0239 8.13867 17.1846 8.0918L17.1856 8.09082C17.2827 8.06468 17.3603 8.04959 17.3916 8.04785C17.406 8.04717 17.4203 8.04586 17.4346 8.04395C17.4346 8.04395 17.4699 8.04299 17.5078 8.04199Z" fill="#312EBF"/>
</g>
<defs>
<clipPath id="clip0_2_731">
<rect width="25" height="25" fill="white"/>
</clipPath>
</defs>
</svg>
